PathFileType	4	(X/Y/Z)	C:\Users\Basilio\Documents\Thesis Gigler\squatting_fais\c3dfiles\044\SLS_back_pre4\markers_experimental.trc
DataRate	CameraRate	NumFrames	NumMarkers	Units	OrigDataRate	OrigDataStartFrame	OrigNumFrames
200.000000	200.000000	4	63	mm	200.000000	170	1367
Frame#	Time	FHD			LBHD			RBHD			C7			T10			LSHO			LUUPA			LMUPA			LDUPA			LLEP			LMEP			LUL			LRFIN			RSHO			RUPA1			RMUPA			RDUPA			RLEP			RMEP			RUFIN			LASI			RASI			USACR			LSACR			RSACR			LTHI1			LTHI2			LTHI3			LTHI4			LLFC			LMFC			LTIB1			LTIB2			LTIB3			LTIB4			LLMAL			LMMAL			LHEE			LMT1			LMT2			LMT5			RTHI			RTHI2			RTHI3			RTHI4			RLFC			RMFC			RTIB1			RTIB2			RTIB3			RTIB4			RLMAL			RMMAL			RHEE			RMT1			RMT2			RMT5			RRAD			RUL			CLAV			LRAD			*61			*62			
		X1	Y1	Z1	X2	Y2	Z2	X3	Y3	Z3	X4	Y4	Z4	X5	Y5	Z5	X6	Y6	Z6	X7	Y7	Z7	X8	Y8	Z8	X9	Y9	Z9	X10	Y10	Z10	X11	Y11	Z11	X12	Y12	Z12	X13	Y13	Z13	X14	Y14	Z14	X15	Y15	Z15	X16	Y16	Z16	X17	Y17	Z17	X18	Y18	Z18	X19	Y19	Z19	X20	Y20	Z20	X21	Y21	Z21	X22	Y22	Z22	X23	Y23	Z23	X24	Y24	Z24	X25	Y25	Z25	X26	Y26	Z26	X27	Y27	Z27	X28	Y28	Z28	X29	Y29	Z29	X30	Y30	Z30	X31	Y31	Z31	X32	Y32	Z32	X33	Y33	Z33	X34	Y34	Z34	X35	Y35	Z35	X36	Y36	Z36	X37	Y37	Z37	X38	Y38	Z38	X39	Y39	Z39	X40	Y40	Z40	X41	Y41	Z41	X42	Y42	Z42	X43	Y43	Z43	X44	Y44	Z44	X45	Y45	Z45	X46	Y46	Z46	X47	Y47	Z47	X48	Y48	Z48	X49	Y49	Z49	X50	Y50	Z50	X51	Y51	Z51	X52	Y52	Z52	X53	Y53	Z53	X54	Y54	Z54	X55	Y55	Z55	X56	Y56	Z56	X57	Y57	Z57	X58	Y58	Z58	X59	Y59	Z59	X60	Y60	Z60	X61	Y61	Z61	X62	Y62	Z62	X63	Y63	Z63	

171	0.85	-218.3162841796876	1802.990112304688	-886.5151977539065	-351.9618225097657	1760.987060546875	-963.228698730469	-391.4696044921876	1742.640747070313	-803.6016235351565	-396.5413513183595	1563.006958007813	-888.843933105469	-378.2765197753907	1261.87646484375	-891.2784423828127	-308.8979187011719	1594.688720703125	-1032.673095703125	-151.1209259033203	1603.623901367188	-1137.088745117188	-122.8542175292969	1617.596801757813	-1097.17724609375	-83.04239654541017	1610.108154296875	-1140.936889648438	-25.65164184570313	1618.762451171875	-1132.419921875	-20.263427734375	1542.321411132813	-1123.61669921875	226.4071655273438	1669.258422851563	-1010.192016601563	237.7461090087891	1681.935302734375	-906.9350585937502	-308.7144165039063	1577.3828125	-734.6224365234376	-149.7953491210938	1579.020751953125	-640.6967773437501	-124.3894271850586	1597.196655273438	-681.0466308593751	-80.79396057128908	1588.134521484375	-640.1699829101564	-22.06401443481446	1600.28076171875	-651.7113647460939	-13.05240631103516	1521.09423828125	-663.4667358398439	232.2262268066407	1643.3662109375	-872.2421875000002	-209.3521728515626	1068.4111328125	-1000.080078125	-198.3106994628907	1053.448608398438	-784.8818969726565	-370.1050720214844	1121.0302734375	-883.2576904296877	-377.7252197265626	1088.558349609375	-909.8806152343752	-373.7498779296876	1090.976928710938	-852.3809814453127	-299.6153869628907	831.433288574219	-1082.105102539063	-265.1149597167969	754.4486694335939	-1082.234741210938	-217.3433990478516	757.3403930664064	-1073.845825195313	-290.8228759765626	700.9024658203126	-1071.042846679688	-270.1630859375001	542.8742065429689	-1059.2724609375	-266.7525024414063	533.3030395507814	-937.268493652344	-258.8942260742188	364.7455139160157	-992.1000976562502	-282.9958496093751	321.6239929199219	-1066.053833007813	-256.1376647949219	317.4399414062501	-1028.185913085938	-277.6848754882813	240.0634155273438	-1001.878051757813	-335.3213195800782	129.063949584961	-1054.316040039063	-317.3997192382813	134.092041015625	-970.1354980468752	-399.4454040527345	105.0234527587891	-1008.320251464844	-192.4803466796876	60.39242553710939	-980.6187744140627	-191.5237731933594	60.67321395874025	-1027.894409179688	-226.8590545654297	47.27254486083985	-1075.578735351563	-297.7541198730469	787.0324707031252	-701.6918334960939	-257.0220336914063	733.1595458984376	-699.1099853515626	-224.2931365966797	735.4915771484376	-704.5043945312501	-280.8275146484376	653.2745971679689	-713.6073608398439	-279.5496215820313	539.3944702148439	-719.0151977539064	-291.2885437011719	530.3264770507814	-841.9951782226565	-242.5773010253907	408.8106994628907	-744.0093994140626	-313.8204650878907	342.9641723632813	-692.0026855468751	-273.5599670410157	332.7482604980469	-710.6123046875001	-267.4321594238282	280.7979125976563	-735.7207031250001	-343.3603820800782	134.0840911865235	-713.5543823242189	-322.8366699218751	137.2752838134766	-795.8904418945315	-401.7868652343751	106.559326171875	-758.7838745117189	-196.9652099609376	62.03090667724611	-775.3194580078127	-192.0810852050782	58.46129226684572	-738.4852905273439	-232.1289825439454	46.45140457153321	-686.3381347656251	nan	nan	nan	235.2227783203126	1654.114990234375	-758.3611450195314	nan	nan	nan	nan	nan	nan	nan	nan	nan	nan	nan	nan	
172	0.855	-218.2283020019532	1802.799072265625	-887.1595458984377	-351.9883728027344	1760.897705078125	-963.7005004882815	-391.5765380859376	1742.808227539063	-804.0474243164065	-396.7520751953126	1562.842407226563	-889.1169433593752	-378.4634094238282	1261.873168945313	-891.399841308594	-308.9114379882813	1594.465454101563	-1032.955932617188	-151.2083435058594	1603.426513671875	-1137.381591796875	-123.0053024291992	1617.652221679688	-1097.408569335938	-83.22214508056642	1610.039794921875	-1141.233520507813	-25.80414199829102	1618.7041015625	-1132.722290039063	-20.4206657409668	1542.30517578125	-1123.9423828125	226.2457275390626	1669.329711914063	-1010.60986328125	237.599838256836	1681.947143554688	-907.1716308593752	-308.7113037109376	1577.277709960938	-734.8442382812501	-149.9007110595703	1579.141967773438	-641.0462036132814	-124.4741897583008	1597.50244140625	-681.5231323242189	-80.9115676879883	1588.2509765625	-640.5678710937501	-22.09886741638184	1600.323852539063	-652.0735473632814	-13.0576229095459	1521.217651367188	-663.9148559570314	232.2789611816407	1643.347290039063	-872.5762939453127	-209.4062500000001	1068.381225585938	-1000.230712890625	-198.332015991211	1053.35595703125	-785.0234375000002	-370.1653442382813	1121.035278320313	-883.252868652344	-377.8995971679688	1088.615112304688	-909.8560180664065	-373.7698364257813	1090.93798828125	-852.340759277344	-299.6563110351563	831.3508300781252	-1082.194458007813	-265.0107421875001	754.2955932617189	-1082.339599609375	-217.3180236816407	757.3244018554689	-1073.932250976563	-290.7523193359376	700.8618774414064	-1071.140014648438	-270.0201110839844	542.9052734375001	-1059.363159179688	-266.7318115234376	533.3840942382814	-937.3555908203127	-258.8868103027344	364.6910095214844	-992.0997314453127	-282.9098205566407	321.6233520507813	-1066.080444335938	-256.0570373535157	317.4344177246094	-1028.151611328125	-277.4689941406251	239.9794921875001	-1001.8681640625	-335.2814331054688	129.079330444336	-1054.320190429688	-317.4244689941407	134.1327056884766	-970.0916137695315	-399.4645080566407	105.0429382324219	-1008.298095703125	-192.4952392578126	60.36838531494142	-980.5734863281252	-191.5680389404297	60.68416213989259	-1027.826171875	-226.8498229980469	47.27641677856446	-1075.573120117188	-297.7523803710938	786.9652099609377	-701.7435302734376	-256.9817504882813	733.1481323242189	-699.1849365234376	-224.2260894775391	735.4580688476564	-704.5064086914064	-280.7598876953126	653.2033081054689	-713.5935668945314	-279.4743347167969	539.4216918945314	-718.9981079101564	-291.1585998535157	530.2506713867189	-842.025085449219	-242.4936523437501	408.767059326172	-743.9805908203126	-313.7417907714844	342.9091796875001	-691.9646606445314	-273.5138244628907	332.6193542480469	-710.5585327148439	-267.2796020507813	280.6527099609376	-735.7026977539064	-343.3793640136719	134.0651550292969	-713.5184326171876	-322.8112792968751	137.3559112548828	-795.8585205078127	-401.7486877441407	106.4498596191407	-758.6876831054689	-196.9576873779297	62.02447509765626	-775.3013305664065	-192.1102294921876	58.46216964721681	-738.4897460937501	-232.1116638183594	46.53782653808594	-686.2830200195314	nan	nan	nan	235.0985717773438	1654.145141601563	-758.7600097656251	nan	nan	nan	nan	nan	nan	nan	nan	nan	nan	nan	nan	
173	0.86	-218.3033294677735	1802.726318359375	-887.7980957031252	-352.0291442871094	1760.926025390625	-964.132263183594	-391.6422119140626	1742.881103515625	-804.3545532226565	-396.860076904297	1562.793334960938	-889.3786621093752	-378.5498962402344	1261.974853515625	-891.5046386718752	-308.8531799316407	1594.489013671875	-1033.189331054688	-151.185546875	1603.128295898438	-1137.659790039063	-123.1542510986328	1617.594482421875	-1097.627685546875	-83.33200073242189	1610.306396484375	-1141.340698242188	-25.85103225708009	1618.40283203125	-1133.067749023438	-20.53814315795899	1542.455078125	-1124.272583007813	226.2374267578126	1669.175170898438	-1010.893188476563	237.5030212402344	1682.031494140625	-907.825134277344	-308.7754211425782	1577.21240234375	-735.1400756835939	-150.0090026855469	1579.2236328125	-641.3658447265626	-124.5039749145508	1597.490844726563	-681.8516235351564	-80.95446777343751	1588.37060546875	-640.8678588867189	-22.22684478759766	1600.44921875	-652.3347167968751	-13.12970638275147	1521.395629882813	-664.3518066406251	232.2088623046876	1643.337890625	-872.8796386718752	-209.6747741699219	1068.347412109375	-1000.307434082031	-198.4038085937501	1053.3857421875	-785.1319580078127	-370.2822570800782	1120.951782226563	-883.187438964844	-378.0369873046876	1088.580078125	-909.8564453125002	-373.8488769531251	1090.861083984375	-852.3159179687502	-299.6276855468751	831.3474731445315	-1082.344360351563	-265.0464782714844	754.3146972656251	-1082.457275390625	-217.2829895019532	757.2631835937501	-1073.954467773438	-290.6542053222657	700.8226318359376	-1071.189453125	-269.8381347656251	542.8203735351564	-1059.44482421875	-266.6160278320313	533.3972778320314	-937.4727783203127	-258.6368713378907	364.6529846191407	-992.1401367187502	-282.8264465332032	321.6580505371094	-1066.077880859375	-255.9713745117188	317.3887939453126	-1028.150634765625	-277.3825683593751	240.0180816650391	-1001.885314941406	-335.2853088378907	129.1035766601563	-1054.276977539063	-317.5131225585938	134.1558837890625	-970.0489501953127	-399.4324035644532	105.0740203857422	-1008.261535644531	-192.4734954833985	60.36587524414064	-980.5098876953127	-191.5644836425782	60.74056625366212	-1027.757690429688	-226.8516082763672	47.29468536376954	-1075.539794921875	-297.7012939453126	786.8859863281252	-701.8176879882814	-256.9180297851563	733.1695556640626	-699.2108154296876	-224.1947631835938	735.4013671875001	-704.4523315429689	-280.6633605957032	653.0899047851564	-713.6447143554689	-279.3919067382813	539.4248657226564	-719.0130004882814	-290.9929199218751	530.1948242187501	-841.9900512695315	-242.3063201904297	408.8588256835939	-743.9993286132814	-313.7092895507813	342.9105834960938	-691.9072875976564	-273.4942626953126	332.6766662597657	-710.5975341796876	-267.2896423339844	280.7386779785157	-735.7138671875001	-343.3708190917969	134.0718078613282	-713.4679565429689	-322.8721313476563	137.3184509277344	-795.790222167969	-401.7914428710939	106.3977127075196	-758.6137695312501	-196.9474334716797	62.04329681396486	-775.2603759765627	-192.1236419677735	58.36586761474611	-738.5204467773439	-232.1351470947266	46.45604705810548	-686.3219604492189	nan	nan	nan	235.0320587158204	1654.148681640625	-759.1975097656251	nan	nan	nan	nan	nan	nan	nan	nan	nan	nan	nan	nan	
174	0.865	-218.4119262695313	1802.7470703125	-888.3938598632815	-351.9961547851563	1760.95947265625	-964.6075439453127	-391.7166442871095	1742.904663085938	-804.6607666015627	-396.9639282226564	1562.778442382813	-889.6361083984377	-378.6652221679688	1261.8994140625	-891.6289062500002	-309.1752014160157	1594.469604492188	-1033.5634765625	-151.3685913085938	1603.027465820313	-1137.997436523438	-123.370964050293	1617.551025390625	-1097.888671875	-83.50325775146486	1610.11474609375	-1141.68115234375	-26.20223426818848	1618.47021484375	-1133.368408203125	-20.60882949829102	1542.218994140625	-1124.553833007813	226.0445098876954	1669.069213867188	-1011.266479492188	237.411361694336	1682.087036132813	-908.289489746094	-308.8591308593751	1577.333618164063	-735.5272216796876	-150.0993347167969	1579.338989257813	-641.7393188476564	-124.6063613891602	1597.465087890625	-682.1784057617189	-81.04455566406251	1588.53125	-641.2660522460939	-22.29427719116211	1600.685668945313	-652.7299194335939	-13.17251110076905	1521.452514648438	-664.7276000976564	232.1015777587891	1643.309204101563	-873.2014770507815	-209.7498168945313	1068.361328125	-1000.464416503906	-198.4749908447266	1053.391235351563	-785.2077636718752	-370.4030151367188	1120.942260742188	-883.2377929687502	-378.2198181152344	1088.631958007813	-909.9035644531252	-373.8928527832032	1090.872924804688	-852.394958496094	-299.6008911132813	831.3050537109377	-1082.490112304688	-264.9870910644532	754.3171997070314	-1082.550659179688	-217.2696533203126	757.3118286132814	-1074.086181640625	-290.5659790039063	700.7095336914064	-1071.298095703125	-269.7272033691407	542.8032836914064	-1059.494873046875	-266.3679809570313	533.3244628906251	-937.5018310546877	-258.5332336425782	364.5247802734376	-992.114685058594	-282.6536865234376	321.6327819824219	-1066.118530273438	-255.8658294677735	317.5216369628907	-1028.206909179688	-277.3432617187501	239.9855499267579	-1001.853759765625	-335.2687377929688	129.064437866211	-1054.302490234375	-317.4203796386719	134.2564697265625	-970.0233154296877	-399.4253845214845	105.2081832885742	-1008.262573242188	-192.4900207519532	60.2775344848633	-980.413269042969	-191.5501251220703	60.72338867187501	-1027.69970703125	-226.8539733886719	47.31690979003907	-1075.544311523438	-297.6917419433594	786.7685546875002	-701.8159790039064	-256.8508300781251	733.1537475585939	-699.2786254882814	-224.1684570312501	735.3297119140626	-704.4904785156251	-280.6202087402344	653.0621337890626	-713.7380981445314	-279.3135986328126	539.3786010742189	-718.9996948242189	-290.8525695800782	530.1478271484376	-842.0022583007815	-242.1574859619141	408.8099975585939	-744.0863647460939	-313.6727600097657	342.9371032714844	-691.8627929687501	-273.4455871582032	332.6755371093751	-710.5501708984376	-267.1988220214844	280.6806640625001	-735.7314453125001	-343.3331298828126	134.0237731933594	-713.4160156250001	-322.8434448242188	137.3320770263672	-795.7849121093752	-401.783660888672	106.368766784668	-758.5375366210939	-196.968002319336	62.02420043945314	-775.274353027344	-192.0910339355469	58.33981704711915	-738.3887939453126	-232.1067810058594	46.3895606994629	-686.2748413085939	nan	nan	nan	234.9509735107422	1654.09326171875	-759.5296630859376	nan	nan	nan	nan	nan	nan	nan	nan	nan	nan	nan	nan	
